<svg width="15" height="13" viewBox="0 0 15 13" fill="none" xmlns="http://www.w3.org/2000/svg">
<path d="M7.84372 12.0931L13.9787 4.42314C14.2189 4.12311 14.3347 3.74236 14.3023 3.35942C14.27 2.97649 14.0918 2.62059 13.8047 2.36514L11.5687 0.379141C11.415 0.242422 11.2348 0.138788 11.0393 0.074682C10.8438 0.0105759 10.6372 -0.012632 10.4324 0.00650121C10.2276 0.0256344 10.0288 0.0866997 9.84861 0.1859C9.66837 0.285101 9.51047 0.420317 9.38472 0.58314L6.11872 4.81114L4.49072 3.33114C4.34389 3.19774 4.17205 3.0948 3.98515 3.02827C3.79826 2.96174 3.60003 2.93294 3.40193 2.94354C3.20383 2.95414 3.0098 3.00394 2.83108 3.09004C2.65235 3.17614 2.49248 3.29683 2.36072 3.44514L0.378724 5.67514C0.246832 5.82357 0.145721 5.9967 0.0812561 6.18451C0.0167908 6.37231 -0.00974625 6.57104 0.00318391 6.76918C0.0161141 6.96732 0.0682541 7.16092 0.15658 7.33875C0.244906 7.51659 0.367661 7.67511 0.517724 7.80514L5.69072 12.2891C5.84331 12.4215 6.02105 12.5216 6.21329 12.5836C6.40553 12.6456 6.60831 12.6681 6.80946 12.6498C7.01061 12.6315 7.20599 12.5727 7.38389 12.4771C7.56178 12.3814 7.71753 12.2508 7.84372 12.0931Z" fill="white"/>
</svg>
