<svg width="24" height="22" viewBox="0 0 24 22" fill="none" xmlns="http://www.w3.org/2000/svg">
<path fill-rule="evenodd" clip-rule="evenodd" d="M7.21763 2.53846H16.7826C17.4054 2.53851 18.0064 2.76751 18.4714 3.1819C18.9363 3.59629 19.2327 4.16715 19.3041 4.78585L20.6715 16.632C20.7125 16.9875 20.6779 17.3477 20.5699 17.689C20.4619 18.0302 20.283 18.3447 20.0449 18.6119C19.8068 18.8791 19.5149 19.093 19.1883 19.2394C18.8617 19.3858 18.5078 19.4615 18.1499 19.4615H5.85025C5.49234 19.4615 5.13849 19.3858 4.81191 19.2394C4.48533 19.093 4.1934 18.8791 3.95528 18.6119C3.71717 18.3447 3.53825 18.0302 3.43026 17.689C3.32228 17.3477 3.28767 16.9875 3.32871 16.632L4.69609 4.78585C4.76751 4.16715 5.06388 3.59629 5.52882 3.1819C5.99376 2.76751 6.59482 2.53851 7.21763 2.53846ZM2.17455 4.49477C2.31738 3.25737 2.91013 2.11566 3.84002 1.28688C4.7699 0.458097 5.97201 8.80542e-05 7.21763 0H16.7826C18.0282 8.80542e-05 19.2303 0.458097 20.1602 1.28688C21.09 2.11566 21.6828 3.25737 21.8256 4.49477L23.193 16.3409C23.2751 17.052 23.2059 17.7724 22.9899 18.4549C22.7739 19.1373 22.4161 19.7664 21.9399 20.3008C21.4636 20.8352 20.8798 21.2628 20.2266 21.5557C19.5735 21.8485 18.8657 21.9999 18.1499 22H5.85025C5.13444 21.9999 4.42673 21.8485 3.77357 21.5557C3.12041 21.2628 2.53655 20.8352 2.06032 20.3008C1.58409 19.7664 1.22625 19.1373 1.01028 18.4549C0.794307 17.7724 0.72509 17.052 0.807169 16.3409L2.17455 4.49477ZM6.92317 6.34615C6.92317 6.00953 7.05689 5.6867 7.29492 5.44867C7.53294 5.21065 7.85578 5.07692 8.1924 5.07692C8.52902 5.07692 8.85185 5.21065 9.08988 5.44867C9.32791 5.6867 9.46163 6.00953 9.46163 6.34615V6.76923C9.46163 7.44247 9.72907 8.08814 10.2051 8.56419C10.6812 9.04025 11.3268 9.30769 12.0001 9.30769C12.6733 9.30769 13.319 9.04025 13.7951 8.56419C14.2711 8.08814 14.5386 7.44247 14.5386 6.76923V6.34615C14.5386 6.00953 14.6723 5.6867 14.9103 5.44867C15.1483 5.21065 15.4712 5.07692 15.8078 5.07692C16.1444 5.07692 16.4672 5.21065 16.7053 5.44867C16.9433 5.6867 17.077 6.00953 17.077 6.34615V6.76923C17.077 8.11571 16.5421 9.40705 15.59 10.3592C14.6379 11.3113 13.3466 11.8462 12.0001 11.8462C10.6536 11.8462 9.36227 11.3113 8.41017 10.3592C7.45806 9.40705 6.92317 8.11571 6.92317 6.76923V6.34615Z" fill="#181818"/>
</svg>
