<svg width="26" height="23" viewBox="0 0 26 23" fill="none" xmlns="http://www.w3.org/2000/svg">
<path fill-rule="evenodd" clip-rule="evenodd" d="M7.21763 3.53846H16.7826C17.4054 3.53851 18.0064 3.76751 18.4714 4.1819C18.9363 4.59629 19.2327 5.16715 19.3041 5.78585L20.6715 17.632C20.7125 17.9875 20.6779 18.3477 20.5699 18.689C20.4619 19.0302 20.283 19.3447 20.0449 19.6119C19.8068 19.8791 19.5149 20.093 19.1883 20.2394C18.8617 20.3858 18.5078 20.4615 18.1499 20.4615H5.85025C5.49234 20.4615 5.13849 20.3858 4.81191 20.2394C4.48533 20.093 4.1934 19.8791 3.95528 19.6119C3.71717 19.3447 3.53825 19.0302 3.43026 18.689C3.32228 18.3477 3.28767 17.9875 3.32871 17.632L4.69609 5.78585C4.76751 5.16715 5.06388 4.59629 5.52882 4.1819C5.99376 3.76751 6.59482 3.53851 7.21763 3.53846ZM2.17455 5.49477C2.31738 4.25737 2.91013 3.11566 3.84002 2.28688C4.7699 1.4581 5.97201 1.00009 7.21763 1H16.7826C18.0282 1.00009 19.2303 1.4581 20.1602 2.28688C21.09 3.11566 21.6828 4.25737 21.8256 5.49477L23.193 17.3409C23.2751 18.052 23.2059 18.7724 22.9899 19.4549C22.7739 20.1373 22.4161 20.7664 21.9399 21.3008C21.4636 21.8352 20.8798 22.2628 20.2266 22.5557C19.5735 22.8485 18.8657 22.9999 18.1499 23H5.85025C5.13444 22.9999 4.42673 22.8485 3.77357 22.5557C3.12041 22.2628 2.53655 21.8352 2.06032 21.3008C1.58409 20.7664 1.22625 20.1373 1.01028 19.4549C0.794307 18.7724 0.72509 18.052 0.807169 17.3409L2.17455 5.49477ZM6.92317 7.34615C6.92317 7.00953 7.05689 6.6867 7.29492 6.44867C7.53294 6.21065 7.85578 6.07692 8.1924 6.07692C8.52902 6.07692 8.85185 6.21065 9.08988 6.44867C9.32791 6.6867 9.46163 7.00953 9.46163 7.34615V7.76923C9.46163 8.44247 9.72907 9.08814 10.2051 9.56419C10.6812 10.0402 11.3268 10.3077 12.0001 10.3077C12.6733 10.3077 13.319 10.0402 13.7951 9.56419C14.2711 9.08814 14.5386 8.44247 14.5386 7.76923V7.34615C14.5386 7.00953 14.6723 6.6867 14.9103 6.44867C15.1483 6.21065 15.4712 6.07692 15.8078 6.07692C16.1444 6.07692 16.4672 6.21065 16.7053 6.44867C16.9433 6.6867 17.077 7.00953 17.077 7.34615V7.76923C17.077 9.11571 16.5421 10.407 15.59 11.3592C14.6379 12.3113 13.3466 12.8462 12.0001 12.8462C10.6536 12.8462 9.36227 12.3113 8.41017 11.3592C7.45806 10.407 6.92317 9.11571 6.92317 7.76923V7.34615Z" fill="#181818"/>
<circle cx="21.1379" cy="4.13792" r="3.63792" fill="#F13957" stroke="white"/>
</svg>
