<svg width="28" height="26" viewBox="0 0 28 26" fill="none" xmlns="http://www.w3.org/2000/svg">
<path fill-rule="evenodd" clip-rule="evenodd" d="M25 5V7C25 7.53043 24.7893 8.03914 24.4142 8.41421C24.0391 8.78929 23.5304 9 23 9H5C4.46957 9 3.96086 8.78929 3.58579 8.41421C3.21071 8.03914 3 7.53043 3 7V5C3 4.46957 3.21071 3.96086 3.58579 3.58579C3.96086 3.21071 4.46957 3 5 3H23C23.5304 3 24.0391 3.21071 24.4142 3.58579C24.7893 3.96086 25 4.46957 25 5ZM28 7V5C28 3.67392 27.4732 2.40215 26.5355 1.46447C25.5979 0.526784 24.3261 0 23 0H5C3.67392 0 2.40215 0.526784 1.46447 1.46447C0.526784 2.40215 0 3.67392 0 5V7C0 8.32608 0.526784 9.59785 1.46447 10.5355C2.40215 11.4732 3.67392 12 5 12H23C24.3261 12 25.5979 11.4732 26.5355 10.5355C27.4732 9.59785 28 8.32608 28 7ZM25 19V21C25 21.5304 24.7893 22.0391 24.4142 22.4142C24.0391 22.7893 23.5304 23 23 23H5C4.46957 23 3.96086 22.7893 3.58579 22.4142C3.21071 22.0391 3 21.5304 3 21V19C3 18.4696 3.21071 17.9609 3.58579 17.5858C3.96086 17.2107 4.46957 17 5 17H23C23.5304 17 24.0391 17.2107 24.4142 17.5858C24.7893 17.9609 25 18.4696 25 19ZM28 21V19C28 17.6739 27.4732 16.4021 26.5355 15.4645C25.5979 14.5268 24.3261 14 23 14H5C3.67392 14 2.40215 14.5268 1.46447 15.4645C0.526784 16.4021 0 17.6739 0 19V21C0 22.3261 0.526784 23.5979 1.46447 24.5355C2.40215 25.4732 3.67392 26 5 26H23C24.3261 26 25.5979 25.4732 26.5355 24.5355C27.4732 23.5979 28 22.3261 28 21Z" fill="#181818"/>
</svg>
