<svg width="24" height="24" viewBox="0 0 24 24" fill="none" xmlns="http://www.w3.org/2000/svg">
<path d="M0 16.9286C0 16.6444 0.0790178 16.3719 0.21967 16.171C0.360322 15.97 0.551088 15.8571 0.75 15.8571H5.25C5.44891 15.8571 5.63968 15.97 5.78033 16.171C5.92098 16.3719 6 16.6444 6 16.9286C6 17.2127 5.92098 17.4853 5.78033 17.6862C5.63968 17.8871 5.44891 18 5.25 18H0.75C0.551088 18 0.360322 17.8871 0.21967 17.6862C0.0790178 17.4853 0 17.2127 0 16.9286ZM0 10.5C0 10.2158 0.0790178 9.94332 0.21967 9.74239C0.360322 9.54145 0.551088 9.42857 0.75 9.42857H11.25C11.4489 9.42857 11.6397 9.54145 11.7803 9.74239C11.921 9.94332 12 10.2158 12 10.5C12 10.7842 11.921 11.0567 11.7803 11.2576C11.6397 11.4585 11.4489 11.5714 11.25 11.5714H0.75C0.551088 11.5714 0.360322 11.4585 0.21967 11.2576C0.0790178 11.0567 0 10.7842 0 10.5ZM0 4.07143C0 3.78727 0.0790178 3.51475 0.21967 3.31381C0.360322 3.11288 0.551088 3 0.75 3H17.25C17.4489 3 17.6397 3.11288 17.7803 3.31381C17.921 3.51475 18 3.78727 18 4.07143C18 4.35559 17.921 4.62811 17.7803 4.82904C17.6397 5.02997 17.4489 5.14286 17.25 5.14286H0.75C0.551088 5.14286 0.360322 5.02997 0.21967 4.82904C0.0790178 4.62811 0 4.35559 0 4.07143Z" fill="#303336"/>
<path d="M14.9004 19.4229L14.1572 19.0107L12.957 18.3438L12.7002 18.2012V14.6426L8.87793 10.332C8.63636 10.0597 8.50558 9.70383 8.5 9.34082V8.66699C8.5 8.37358 8.60404 8.08221 8.80371 7.86035C9.00486 7.63688 9.29003 7.50012 9.59961 7.5H20.4004C20.71 7.50012 20.9951 7.63688 21.1963 7.86035C21.396 8.08221 21.5 8.37358 21.5 8.66699V9.34082C21.4951 9.65843 21.3939 9.97017 21.207 10.2256L21.1221 10.332L17.2998 14.6426V20.8496L16.5576 20.4375L15.3574 19.7705L15.0986 19.627L15.0996 19.332L15.1182 14.1787V14.1777C15.1194 13.8876 15.2224 13.6 15.4189 13.3799L18.5635 9.83301H11.4502L14.5977 13.3799H14.5986C14.7952 13.6 14.8992 13.8876 14.9004 14.1777V19.4229Z" fill="#303336" stroke="white"/>
</svg>
