<svg width="28" height="27" viewBox="0 0 28 27" fill="none" xmlns="http://www.w3.org/2000/svg">
<path d="M11.8897 0.77391C12.4789 0.274314 13.227 0 14.0003 0C14.7736 0 15.5217 0.274314 16.1109 0.77391L25.8867 9.06189C26.2466 9.367 26.5356 9.74649 26.7338 10.1741C26.9321 10.6016 27.0348 11.0671 27.0348 11.5382V24.4997C27.0348 25.1628 26.7707 25.7988 26.3006 26.2677C25.8305 26.7366 25.193 27 24.5282 27H20.5175C19.8527 27 19.2152 26.7366 18.7451 26.2677C18.275 25.7988 18.0109 25.1628 18.0109 24.4997V17.9989C18.0109 17.47 17.8009 16.9626 17.4268 16.5877C17.0526 16.2129 16.5449 16.0011 16.0146 15.9987H11.985C11.4549 16.0013 10.9474 16.2133 10.5735 16.5881C10.1996 16.9629 9.98969 17.4702 9.98969 17.9989V24.4997C9.98969 24.8281 9.92486 25.1532 9.79889 25.4565C9.67292 25.7599 9.48828 26.0355 9.25552 26.2677C9.02276 26.4999 8.74643 26.684 8.44231 26.8097C8.13819 26.9353 7.81224 27 7.48306 27H3.47245C2.80765 27 2.17008 26.7366 1.7 26.2677C1.22991 25.7988 0.96582 25.1628 0.96582 24.4997V11.5382C0.965847 11.0671 1.06853 10.6016 1.26676 10.1741C1.46499 9.74649 1.75403 9.367 2.11386 9.06189L11.8897 0.77391Z" fill="#808080"/>
</svg>
