<svg width="22" height="24" viewBox="0 0 22 24" fill="none" xmlns="http://www.w3.org/2000/svg">
<path fill-rule="evenodd" clip-rule="evenodd" d="M5.22214 12.1126L6.24543 6.98758C6.45465 5.95032 7.01517 5.01756 7.8319 4.34753C8.64863 3.67749 9.67131 3.31143 10.7265 3.31143C11.7816 3.31143 12.8043 3.67749 13.621 4.34753C14.4378 5.01756 14.9983 5.95032 15.2075 6.98758L16.2308 12.1126C16.5379 13.6418 17.2869 15.0466 18.3846 16.1517L18.7048 16.4712C18.8228 16.5896 18.907 16.7375 18.9488 16.8996C18.9905 17.0617 18.9883 17.232 18.9423 17.3929C18.8964 17.5538 18.8083 17.6995 18.6874 17.8148C18.5664 17.9301 18.4168 18.0109 18.2543 18.0487L16.8992 18.3632C12.8376 19.3053 8.61528 19.3053 4.5537 18.3632L3.20031 18.0487C3.0376 18.0111 2.88789 17.9305 2.76671 17.8153C2.64552 17.7001 2.55729 17.5544 2.51115 17.3935C2.46501 17.2325 2.46265 17.0621 2.50431 16.8999C2.54597 16.7378 2.63014 16.5897 2.74808 16.4712L3.06827 16.1517C4.16837 15.0483 4.91786 13.6428 5.22214 12.1126ZM2.79595 11.6259L3.81759 6.50091C4.13885 4.90054 5.00252 3.46103 6.26192 2.42687C7.52132 1.3927 9.0988 0.827637 10.7265 0.827637C12.3541 0.827637 13.9316 1.3927 15.191 2.42687C16.4504 3.46103 17.3141 4.90054 17.6353 6.50091L18.6586 11.6259C18.8666 12.6754 19.3815 13.6388 20.1358 14.3953L20.456 14.7165C20.8868 15.1482 21.1945 15.6877 21.3471 16.2791C21.4997 16.8704 21.4916 17.492 21.3237 18.0791C21.1557 18.6662 20.834 19.1975 20.3921 19.6178C19.9501 20.0381 19.404 20.3319 18.8105 20.4689L17.4554 20.7834C16.2968 21.0482 15.1305 21.2458 13.9564 21.376C13.7995 22.1183 13.3931 22.784 12.8053 23.2617C12.2174 23.7393 11.4838 24 10.7273 24C9.97073 24 9.23714 23.7393 8.6493 23.2617C8.06147 22.784 7.65507 22.1183 7.49814 21.376C6.32104 21.248 5.15262 21.0496 3.99914 20.7817L2.64245 20.4672C2.04959 20.3296 1.50421 20.0355 1.06285 19.6153C0.621497 19.1951 0.300234 18.6642 0.132368 18.0775C-0.0354967 17.4909 -0.0438529 16.8699 0.108166 16.2789C0.260185 15.6879 0.567045 15.1485 0.996933 14.7165L1.31877 14.3937C2.07304 13.6372 2.58799 12.6721 2.79595 11.6243" fill="#181818"/>
<circle cx="16.1379" cy="4.13792" r="3.63792" fill="#F13957" stroke="white"/>
</svg>
