<svg width="26" height="26" viewBox="0 0 26 26" fill="none" xmlns="http://www.w3.org/2000/svg">
<path fill-rule="evenodd" clip-rule="evenodd" d="M11.5649 2.60816e-08C9.72057 0.000157142 7.90307 0.441342 6.26397 1.28675C4.62488 2.13215 3.21173 3.35726 2.14242 4.85986C1.07311 6.36246 0.378661 8.09898 0.116999 9.92454C-0.144663 11.7501 0.034053 13.6118 0.638238 15.3542C1.24242 17.0967 2.25456 18.6694 3.59019 19.9411C4.92583 21.2129 6.54624 22.1468 8.31624 22.6649C10.0862 23.1831 11.9545 23.2705 13.7651 22.9198C15.5758 22.5691 17.2763 21.7905 18.7248 20.649L23.694 25.6181C23.9507 25.8659 24.2944 26.003 24.6511 25.9999C25.0079 25.9968 25.3492 25.8538 25.6015 25.6015C25.8537 25.3492 25.9968 25.0079 25.9999 24.6512C26.003 24.2944 25.8659 23.9507 25.618 23.6941L20.6488 18.7251C21.9932 17.0197 22.8302 14.9703 23.0642 12.8114C23.2981 10.6525 22.9195 8.47135 21.9717 6.51757C21.0239 4.5638 19.5451 2.91633 17.7047 1.7637C15.8642 0.61107 13.7365 -0.000145783 11.5649 2.60816e-08ZM2.72039 11.5654C2.72039 9.2198 3.65222 6.97026 5.31088 5.31166C6.96954 3.65306 9.21916 2.72127 11.5649 2.72127C13.9106 2.72127 16.1602 3.65306 17.8188 5.31166C19.4775 6.97026 20.4093 9.2198 20.4093 11.5654C20.4093 13.911 19.4775 16.1606 17.8188 17.8192C16.1602 19.4778 13.9106 20.4095 11.5649 20.4095C9.21916 20.4095 6.96954 19.4778 5.31088 17.8192C3.65222 16.1606 2.72039 13.911 2.72039 11.5654Z" fill="#808080"/>
</svg>
