<svg width="20" height="26" viewBox="0 0 20 26" fill="none" xmlns="http://www.w3.org/2000/svg">
<path d="M16.7034 13.4563C16.7379 17.2325 19.9643 18.4891 20 18.5051C19.9727 18.5937 19.4845 20.2958 18.3003 22.054C17.2765 23.5741 16.2139 25.0885 14.5401 25.1199C12.8956 25.1507 12.3667 24.1292 10.4864 24.1292C8.60658 24.1292 8.019 25.0885 6.46213 25.1507C4.8465 25.2128 3.61619 23.507 2.58401 21.9925C0.47463 18.8946 -1.13732 13.2385 1.02713 9.42059C2.10236 7.52455 4.02401 6.324 6.10963 6.29321C7.69612 6.26249 9.19361 7.37749 10.1635 7.37749C11.1327 7.37749 12.9524 6.03662 14.8655 6.23352C15.6663 6.26741 17.9144 6.56209 19.3579 8.7086C19.2415 8.78186 16.6755 10.2994 16.7034 13.4564M13.6125 4.184C14.4703 3.12924 15.0476 1.66098 14.8901 0.199951C13.6537 0.250427 12.1587 1.03694 11.2718 2.09106C10.4771 3.02463 9.78104 4.51876 9.96885 5.95082C11.347 6.05916 12.7547 5.2394 13.6125 4.184Z" fill="black"/>
</svg>
