<svg width="15" height="10" viewBox="0 0 15 10" fill="none" xmlns="http://www.w3.org/2000/svg">
<path fill-rule="evenodd" clip-rule="evenodd" d="M8.88998 8.908C8.60873 9.1889 8.22748 9.34668 7.82998 9.34668C7.43248 9.34668 7.05123 9.1889 6.76998 8.908L1.11198 3.252C0.830716 2.97061 0.672758 2.589 0.672852 2.19115C0.672898 1.99415 0.711746 1.79908 0.787177 1.6171C0.862608 1.43511 0.973146 1.26977 1.11248 1.1305C1.25181 0.991233 1.41721 0.880774 1.59923 0.805428C1.78125 0.730082 1.97633 0.691325 2.17333 0.691372C2.37033 0.691419 2.56539 0.730268 2.74738 0.805698C2.92936 0.881129 3.09471 0.991667 3.23398 1.131L7.82998 5.726L12.426 1.13C12.5643 0.98667 12.7297 0.872319 12.9127 0.793621C13.0957 0.714923 13.2925 0.673453 13.4917 0.671629C13.6908 0.669805 13.8884 0.707664 14.0727 0.782999C14.2571 0.858334 14.4247 0.969633 14.5656 1.1104C14.7065 1.25118 14.8179 1.4186 14.8934 1.60291C14.9689 1.78722 15.007 1.98472 15.0053 2.18389C15.0037 2.38306 14.9624 2.57991 14.8839 2.76295C14.8054 2.94599 14.6912 3.11156 14.548 3.25L8.88998 8.91V8.908Z" fill="black"/>
</svg>
