<svg width="42" height="42" viewBox="0 0 42 42" fill="none" xmlns="http://www.w3.org/2000/svg">
<g clip-path="url(#clip0_3089_5121)">
<path fill-rule="evenodd" clip-rule="evenodd" d="M21 42C26.5695 42 31.911 39.7875 35.8492 35.8492C39.7875 31.911 42 26.5695 42 21C42 15.4305 39.7875 10.089 35.8492 6.15076C31.911 2.21249 26.5695 0 21 0C15.4305 0 10.089 2.21249 6.15076 6.15076C2.21249 10.089 0 15.4305 0 21C0 26.5695 2.21249 31.911 6.15076 35.8492C10.089 39.7875 15.4305 42 21 42Z" fill="black" fill-opacity="0.5"/>
<path d="M24.3893 27.4435C24.0296 27.7998 23.5419 28 23.0335 28C22.525 28 22.0374 27.7998 21.6776 27.4435L16.5611 22.3692C16.2018 22.0125 16 21.5288 16 21.0246C16 20.5203 16.2018 20.0367 16.5611 19.6799L21.6776 14.6056C21.8533 14.4187 22.0651 14.2687 22.3004 14.1647C22.5358 14.0607 22.7899 14.0048 23.0475 14.0003C23.3051 13.9958 23.561 14.0428 23.7999 14.1385C24.0388 14.2342 24.2558 14.3766 24.438 14.5573C24.6202 14.738 24.7639 14.9533 24.8604 15.1902C24.9569 15.4271 25.0042 15.6809 24.9997 15.9364C24.9952 16.1919 24.9388 16.4439 24.8339 16.6773C24.729 16.9107 24.5778 17.1208 24.3893 17.295L20.6309 21.0246L24.3893 24.7541C24.7486 25.1109 24.9505 25.5946 24.9505 26.0988C24.9505 26.6031 24.7486 27.0867 24.3893 27.4435Z" fill="white"/>
</g>
<defs>
<clipPath id="clip0_3089_5121">
<rect width="42" height="42" fill="white"/>
</clipPath>
</defs>
</svg>
