<svg width="20" height="21" viewBox="0 0 20 21" fill="none" xmlns="http://www.w3.org/2000/svg">
<path d="M6.96758 0.857757C9.1283 0.115971 11.4779 0.136373 13.6254 0.91557C14.8048 1.35708 15.8854 2.02719 16.8051 2.88744C16.4926 3.22182 16.1629 3.53432 15.8441 3.85932C15.2379 4.46453 14.6322 5.06765 14.027 5.66869C13.4236 5.09172 12.6938 4.66368 11.8957 4.41869C10.8744 4.11032 9.78792 4.08921 8.75542 4.35767C7.72292 4.62613 6.78432 5.17379 6.04258 5.94057C5.39513 6.59922 4.90481 7.3956 4.6082 8.27026L1.36914 5.76244C2.52853 3.46332 4.53594 1.70467 6.96758 0.857757Z" fill="#E33629"/>
<path d="M0.509175 8.24683C0.683271 7.384 0.972306 6.54843 1.36855 5.76245L4.60761 8.27651C4.18389 9.52434 4.18389 10.8771 4.60761 12.125C3.52845 12.9583 2.44876 13.7958 1.36855 14.6375C0.376598 12.6629 0.07407 10.4132 0.509175 8.24683Z" fill="#F8BD00"/>
<path d="M10.198 8.34839H19.498C19.8161 10.0936 19.73 11.8885 19.2464 13.5953C18.8015 15.1648 17.9371 16.5833 16.7464 17.6984C15.7011 16.8828 14.6511 16.0734 13.6058 15.2578C14.124 14.9082 14.5663 14.4576 14.9063 13.933C15.2462 13.4083 15.4766 12.8205 15.5839 12.2046H10.198C10.1964 10.9203 10.198 9.63433 10.198 8.34839Z" fill="#587DBD"/>
<path d="M1.36719 14.6375C2.4474 13.8042 3.52708 12.9667 4.60625 12.125C5.02376 13.3503 5.81782 14.4123 6.875 15.1594C7.53439 15.6254 8.28364 15.949 9.075 16.1094C9.85478 16.2544 10.6546 16.2544 11.4344 16.1094C12.2119 15.9778 12.9533 15.685 13.6109 15.25C14.6562 16.0656 15.7063 16.875 16.7516 17.6906C15.6076 18.7308 14.2132 19.4561 12.7047 19.7953C11.0397 20.1867 9.30457 20.168 7.64844 19.7406C6.3386 19.3909 5.11512 18.7744 4.05469 17.9297C2.93228 17.0386 2.01556 15.9156 1.36719 14.6375Z" fill="#319F43"/>
</svg>
