<svg width="49" height="42" viewBox="0 0 49 42" fill="none" xmlns="http://www.w3.org/2000/svg">
<path fill-rule="evenodd" clip-rule="evenodd" d="M13.774 0.00323071C9.6418 0.00323071 6.12717 1.48606 3.66337 4.19004C1.2222 6.86494 0 10.5284 0 14.5827C0 21.6254 3.589 27.2368 8.148 31.6013C12.6876 35.9464 18.3977 39.2513 23.1248 41.7227C23.4702 41.9037 23.8543 41.9989 24.2444 42C24.6344 42.0011 25.019 41.9082 25.3655 41.7291C30.0959 39.2836 35.8027 35.9529 40.3455 31.5852C44.9045 27.2078 48.5 21.5769 48.5 14.5827C48.5 10.5122 47.2713 6.85202 44.8269 4.17711C42.3599 1.4796 38.8453 0 34.726 0C31.2469 0 28.3693 1.28899 26.1803 3.71837C25.4321 4.56022 24.7843 5.48606 24.25 6.47727C23.7157 5.48606 23.0679 4.56022 22.3197 3.71837C20.1307 1.28899 17.2531 0.00323071 13.774 0.00323071Z" fill="white"/>
</svg>
