<svg width="14" height="17" viewBox="0 0 14 17" fill="none" xmlns="http://www.w3.org/2000/svg">
<path d="M4.56205e-08 2.15526C0.000178087 1.769 0.104109 1.38988 0.300928 1.05753C0.497747 0.725174 0.780228 0.451793 1.11884 0.265958C1.45746 0.0801229 1.83978 -0.0113419 2.22584 0.00112338C2.61189 0.0135887 2.98751 0.129527 3.31344 0.336819L12.9533 6.47063C13.2593 6.66538 13.5113 6.93419 13.6859 7.25217C13.8604 7.57016 13.9519 7.92704 13.9519 8.28979C13.9519 8.65253 13.8604 9.00942 13.6859 9.3274C13.5113 9.64539 13.2593 9.9142 12.9533 10.1089L3.31344 16.2442C2.98741 16.4516 2.61166 16.5675 2.22548 16.5799C1.8393 16.5923 1.45688 16.5007 1.11821 16.3147C0.779553 16.1287 0.497094 15.8551 0.300379 15.5226C0.103664 15.19 -7.94224e-05 14.8107 4.56205e-08 14.4243V2.15526Z" fill="white"/>
</svg>
