<svg width="16" height="25" viewBox="0 0 16 25" fill="none" xmlns="http://www.w3.org/2000/svg">
<path d="M14.2222 0.199951H1.77778C1.30628 0.199951 0.854097 0.380563 0.520699 0.702054C0.187301 1.02354 0 1.45958 0 1.91424V22.4857C0 22.9403 0.187301 23.3764 0.520699 23.6978C0.854097 24.0193 1.30628 24.2 1.77778 24.2H14.2222C14.6937 24.2 15.1459 24.0193 15.4793 23.6978C15.8127 23.3764 16 22.9403 16 22.4857V1.91424C16 1.45958 15.8127 1.02354 15.4793 0.702054C15.1459 0.380563 14.6937 0.199951 14.2222 0.199951ZM8.88889 22.4857H7.11111V20.7714H8.88889V22.4857ZM1.77778 19.0571V1.91424H14.2222V19.0571H1.77778Z" fill="black"/>
</svg>
