<svg width="19" height="18" viewBox="0 0 19 18" fill="none" xmlns="http://www.w3.org/2000/svg">
<path d="M17.5 14.5C17.8852 14.5002 18.2556 14.6486 18.5344 14.9144C18.8132 15.1802 18.979 15.5431 18.9975 15.9279C19.016 16.3127 18.8858 16.6898 18.6338 16.9812C18.3818 17.2726 18.0274 17.4558 17.644 17.493L17.5 17.5H1.5C1.11478 17.4998 0.744405 17.3514 0.465613 17.0856C0.186821 16.8198 0.020988 16.4569 0.00247574 16.0721C-0.0160365 15.6873 0.114192 15.3102 0.366175 15.0188C0.618159 14.7274 0.972581 14.5442 1.356 14.507L1.5 14.5H17.5ZM17.5 7.5C17.8978 7.5 18.2794 7.65804 18.5607 7.93934C18.842 8.22064 19 8.60218 19 9C19 9.39782 18.842 9.77936 18.5607 10.0607C18.2794 10.342 17.8978 10.5 17.5 10.5H1.5C1.10218 10.5 0.720644 10.342 0.43934 10.0607C0.158035 9.77936 0 9.39782 0 9C0 8.60218 0.158035 8.22064 0.43934 7.93934C0.720644 7.65804 1.10218 7.5 1.5 7.5H17.5ZM17.5 0.5C17.8978 0.5 18.2794 0.658035 18.5607 0.93934C18.842 1.22064 19 1.60218 19 2C19 2.39782 18.842 2.77936 18.5607 3.06066C18.2794 3.34196 17.8978 3.5 17.5 3.5H1.5C1.10218 3.5 0.720644 3.34196 0.43934 3.06066C0.158035 2.77936 0 2.39782 0 2C0 1.60218 0.158035 1.22064 0.43934 0.93934C0.720644 0.658035 1.10218 0.5 1.5 0.5H17.5Z" fill="black"/>
</svg>
